# xmcd
#
# Track frame offsets:
#	150
#	30847
#	44935
#	65470
#	88547
#	116012
#	129887
#	151550
#	172582
#	185715
#	195167
#	237717
#	267512
#
# Disc length: 3733 seconds
#
# Revision: 3
# Processed by: cddbd v1.4PL0 Copyright (c) Steve Scherf et al.
#
# Submitted via: MusicManager v6.1.1.0
#
DISCID=a40e930d
DTITLE=Various Artist - Cover magazine
DYEAR=2001
DGENRE=country 
TTITLE0=Giant Sand - El Paso/Out on the weekend
TTITLE1=Giant Sand - Johnny Hit And Run Pauline
TTITLE2=Giant Sand - Iron man
TTITLE3=Giant Sand - Human/Lovely head
TTITLE4=Giant Sand - The beat goes on
TTITLE5=Giant Sand - Plants and rags
TTITLE6=Giant Sand - Wayfaring Stranger/Fly me to the moon
TTITLE7=Giant Sand - Red right hand
TTITLE8=Giant Sand - King of the road
TTITLE9=Giant Sand - I'm leaving now
TTITLE10=Giant Sand - Blue marble girl (live)
TTITLE11=Giant Sand - The inner flame (live)
TTITLE12=Giant Sand - The beat goes on (live)
EXTD=
EXTT0=
EXTT1=
EXTT2=
EXTT3=
EXTT4=
EXTT5=
EXTT6=
EXTT7=
EXTT8=
EXTT9=
EXTT10=
EXTT11=
EXTT12=
PLAYORDER=
